<svg xmlns="http://www.w3.org/2000/svg" viewBox="271 188 460 460" role="img" aria-label="Fervia">
  <defs>
    <linearGradient id="fvBg" x1="0" y1="0" x2="1" y2="1">
      <stop offset="0" stop-color="#1A2D45"/>
      <stop offset="1" stop-color="#0E1C30"/>
    </linearGradient>
    <linearGradient id="fvFlame" x1="0" y1="0" x2="0" y2="1" gradientUnits="objectBoundingBox">
      <stop offset="0" stop-color="#F5D27A"/>
      <stop offset="0.55" stop-color="#C9A84C"/>
      <stop offset="1" stop-color="#A8792A"/>
    </linearGradient>
  </defs>
  <rect x="271" y="188" width="460" height="460" rx="96" fill="url(#fvBg)"/>
  <path d="M567.317,347.521c35.36,50.817 49.883,138.235 17.301,204.89c-10.528,21.539 -26.089,44.373 -62.525,45.458c-42.8,1.275 -74.178,-48.506 -42.145,-88.042c30.053,-37.091 101.649,-54.984 87.369,-162.306Zm12.31,53.537c-5.963,35.591 -23.875,57.951 -43.408,75.76c-16.657,15.186 -34.89,26.477 -46.558,40.878c-24.577,30.333 -0.777,68.657 32.06,67.679c30.356,-0.904 42.895,-20.508 51.667,-38.453c22.104,-45.221 21.055,-100.62 6.239,-145.864Z" fill="url(#fvFlame)"/>
  <path d="M490.391,237.971c-4.47,-3.855 111.996,76.729 40.025,155.3c-132.885,145.073 -57.458,199.556 -57.434,201.171c0.037,2.55 -142.56,-86.1 -36.644,-208.904c50.451,-58.495 74.523,-129.911 54.053,-147.567Zm-50.877,312.108c-2.892,-33.918 10.638,-87.687 81.685,-165.251c27.653,-30.189 22.608,-60.738 9.17,-84.896c-6.058,-10.892 -13.714,-20.584 -21.093,-28.559c-4.631,32.481 -27.498,80.619 -63.472,122.329c-26.092,30.251 -36.05,58.06 -36.107,82.744c-0.071,30.149 14.197,55.289 29.817,73.633Z" fill="url(#fvFlame)"/>
</svg>
