<?xml version="1.0" encoding="UTF-8" standalone="no"?><!DOCTYPE svg PUBLIC "-//W3C//DTD SVG 1.1//EN" "http://www.w3.org/Graphics/SVG/1.1/DTD/svg11.dtd"><svg width="100%" height="100%" viewBox="0 0 4167 4167" version="1.1" xmlns="http://www.w3.org/2000/svg" xmlns:xlink="http://www.w3.org/1999/xlink" xml:space="preserve" xmlns:serif="http://www.serif.com/" style="fill-rule:evenodd;clip-rule:evenodd;stroke-linejoin:round;stroke-miterlimit:2;"><g><path d="M2363.82,1448c147.333,211.738 207.846,575.979 72.087,853.709c-43.866,89.745 -108.704,184.887 -260.52,189.408c-178.334,5.312 -309.075,-202.108 -175.605,-366.842c125.221,-154.546 423.538,-229.1 364.038,-676.275Zm51.292,223.071c-24.846,148.296 -99.48,241.463 -180.867,315.667c-69.404,63.275 -145.375,110.321 -193.992,170.325c-102.404,126.387 -3.237,286.071 133.584,281.996c126.483,-3.767 178.729,-85.45 215.279,-160.221c92.1,-188.421 87.729,-419.25 25.996,-607.767Z" style="fill:url(#_Linear1);"/><path d="M2043.3,991.546c-18.625,-16.063 466.65,319.704 166.771,647.083c-553.688,604.471 -239.409,831.484 -239.309,838.213c0.155,10.625 -594,-358.75 -152.683,-870.434c210.213,-243.729 310.513,-541.295 225.221,-614.862Zm-211.988,1300.45c-12.05,-141.325 44.325,-365.363 340.355,-688.546c115.22,-125.787 94.2,-253.075 38.208,-353.733c-25.242,-45.384 -57.142,-85.767 -87.888,-118.996c-19.296,135.337 -114.575,335.912 -264.466,509.704c-108.717,126.046 -150.209,241.917 -150.446,344.767c-0.296,125.621 59.154,230.371 124.237,306.804Z" style="fill:url(#_Linear2);"/></g><g><path d="M849.075,3312.29c-1.329,-0.001 -1.996,-1.471 -1.996,-4.409c0,-2.937 0.667,-4.408 1.996,-4.408c17.183,-0 29.983,-1.221 38.4,-3.671c8.417,-2.446 14.038,-7.346 16.871,-14.688c2.829,-7.345 4.246,-18.116 4.246,-32.316l-0,-340.063c-0,-14.2 -1.329,-24.85 -3.984,-31.95c-2.645,-7.1 -7.916,-11.995 -15.804,-14.687c-7.879,-2.696 -19.879,-4.042 -36,-4.042c-1.337,0 -2.008,-1.466 -2.008,-4.408c-0,-2.938 0.671,-4.404 2.008,-4.404l305.759,-0c4.758,-0 7.137,2.204 7.137,6.608l1.471,95.267c-0,1.108 -1.258,1.841 -3.775,2.2c-2.508,0.354 -4.121,-0.204 -4.833,-1.675c-5.675,-27.946 -17.08,-48.788 -34.209,-62.521c-17.125,-13.733 -39.65,-20.6 -67.583,-20.6l-29.921,-0c-17.917,-0 -30.471,3.117 -37.662,9.354c-7.192,6.225 -10.788,16.758 -10.788,31.592l0,336.387c0,14.692 1.988,25.829 5.967,33.421c3.987,7.588 11.879,12.854 23.675,15.792c11.804,2.937 29.333,4.404 52.583,4.404c1.113,-0 1.667,1.471 1.667,4.408c-0,2.938 -0.554,4.409 -1.667,4.409c-16.379,-0 -34.104,-0.246 -53.179,-0.738c-19.075,-0.487 -40.979,-0.733 -65.713,-0.733c-17.091,-0 -33.695,0.245 -49.808,0.733c-16.104,0.492 -30.387,0.738 -42.85,0.738Zm272.558,-157.938c0,-20.258 -6.95,-35.771 -20.854,-46.533c-13.891,-10.767 -35.016,-16.146 -63.371,-16.146l-92.279,-0l0,-18.754l93.625,-0c27.946,-0 48.621,-4.804 62.025,-14.413c13.413,-9.608 20.121,-23.116 20.121,-40.525c0,-0.979 1.467,-1.466 4.404,-1.466c2.938,-0 4.409,0.487 4.409,1.466c-0,15.975 -0.121,28.325 -0.367,37.046c-0.246,8.721 -0.367,17.846 -0.367,27.371c0,11.837 0.242,23.462 0.734,34.875c0.491,11.417 0.733,23.775 0.733,37.079c-0,1.342 -1.467,2.008 -4.404,2.008c-2.938,0 -4.409,-0.666 -4.409,-2.008Z" style="fill:url(#_Linear3);fill-rule:nonzero;"/><path d="M1552.03,3312.29l-318.771,-0.001c-1.341,0.001 -2.008,-1.47 -2.008,-4.408c0,-2.937 0.667,-4.408 2.008,-4.408c16.121,-0 28.121,-1.221 36,-3.671c7.888,-2.446 13.155,-7.346 15.805,-14.688c2.654,-7.345 3.979,-18.116 3.979,-32.316l-0,-340.063c-0,-14.2 -1.325,-24.85 -3.979,-31.95c-2.65,-7.1 -7.917,-11.995 -15.805,-14.687c-7.879,-2.696 -19.879,-4.042 -36,-4.042c-1.341,0 -2.008,-1.466 -2.008,-4.408c0,-2.938 0.667,-4.404 2.008,-4.404l305.759,-0c4.758,-0 7.137,2.204 7.137,6.608l1.471,95.267c0,1.108 -1.258,1.841 -3.779,2.2c-2.508,0.354 -4.117,-0.204 -4.829,-1.675c-5.679,-27.946 -17.079,-48.788 -34.213,-62.521c-17.12,-13.733 -39.65,-20.6 -67.583,-20.6l-29.917,-0c-12.079,-0 -21.675,1.312 -28.783,3.937c-7.104,2.625 -12.162,7.042 -15.171,13.255c-3,6.212 -4.496,14.466 -4.496,24.766l0,335.375c0,10.513 1.321,19.021 3.971,25.525c2.654,6.504 7,11.154 13.034,13.954c6.045,2.8 14.395,4.2 25.054,4.2l36.162,0c33.071,0 59.904,-8.033 80.492,-24.1c20.587,-16.075 35.258,-39.841 44.012,-71.3c0.359,-1.47 1.917,-1.9 4.671,-1.295c2.763,0.595 4.142,1.45 4.142,2.558c-1.959,13.796 -3.638,30.162 -5.038,49.104c-1.4,18.938 -2.1,36.525 -2.1,52.771c0,7.342 -3.741,11.017 -11.225,11.017Zm-41.129,-166.209c0,-20.621 -6.783,-36.312 -20.346,-47.075c-13.558,-10.767 -34.221,-16.15 -61.983,-16.15l-102.988,0l0,-18.75l104.121,0c27.138,0 47.334,-4.683 60.584,-14.046c13.254,-9.366 19.879,-22.816 19.879,-40.35c-0,-1.341 1.379,-2.008 4.141,-2.008c2.763,0 4.142,0.667 4.142,2.008c0,15.613 -0.121,27.784 -0.367,36.504c-0.245,8.721 -0.366,17.846 -0.366,27.371c-0,11.834 0.333,23.463 1,34.875c0.662,11.417 0.996,23.954 0.996,37.621c-0,0.979 -1.467,1.467 -4.405,1.467c-2.941,-0 -4.408,-0.488 -4.408,-1.467Z" style="fill:url(#_Linear4);fill-rule:nonzero;"/><path d="M2116.61,3429.27c-7.612,-0 -19.991,-9.28 -37.137,-27.842c-17.146,-18.567 -154.746,-162.313 -178.838,-197.279c-24.083,-34.971 -51.179,-76.696 -81.287,-125.171l58.692,-17.938c39.975,59.251 74.033,106.646 102.17,142.192c28.142,35.538 170.096,178.108 191.909,193.754c21.812,15.646 42.716,23.471 62.708,23.471c1.108,0 1.662,1.467 1.662,4.409c0,2.937 -0.554,4.404 -1.662,4.404l-118.217,-0Zm-284.187,-578.229c43.025,-0.001 76.054,8.437 99.083,25.316c23.029,16.871 34.542,39.929 34.542,69.179c-0,28.075 -7.946,53.088 -23.833,75.029c-15.892,21.942 -36.446,39.034 -61.663,51.275c-25.217,12.242 -52.117,18.363 -80.7,18.363c-6.183,0 -12.654,-0.067 -19.417,-0.196c-6.762,-0.137 -12.95,-0.45 -18.558,-0.942l0,163.734c0,14.2 1.288,24.971 3.867,32.316c2.587,7.342 7.854,12.242 15.804,14.688c7.958,2.45 19.996,3.671 36.117,3.671c1.116,-0 1.675,1.471 1.675,4.408c-0,2.938 -0.559,4.409 -1.675,4.409c-12.467,-0.001 -26.296,-0.246 -41.5,-0.738c-15.196,-0.488 -31.892,-0.733 -50.092,-0.733c-17.083,-0 -33.417,0.245 -48.992,0.733c-15.579,0.492 -29.596,0.737 -42.062,0.737c-1.338,0 -2.009,-1.47 -2.009,-4.408c0,-2.937 0.671,-4.408 2.009,-4.408c16.121,-0 28.158,-1.221 36.104,-3.671c7.95,-2.446 13.371,-7.346 16.262,-14.688c2.9,-7.345 4.35,-18.116 4.35,-32.316l0,-340.063c0,-14.2 -1.329,-24.85 -3.983,-31.95c-2.646,-7.1 -7.908,-11.996 -15.792,-14.687c-7.879,-2.696 -19.883,-4.042 -36.012,-4.042c-1.109,0 -1.663,-1.467 -1.663,-4.408c0,-2.938 0.554,-4.404 1.663,-4.404c12.333,-0 26.166,0.366 41.5,1.1c15.333,0.737 31.541,1.104 48.625,1.104c15.892,-0 33.604,-0.738 53.146,-2.204c19.545,-1.471 37.283,-2.205 53.204,-2.205Zm61.604,120.18c0,-28.217 -3.313,-49.98 -9.929,-65.288c-6.609,-15.317 -15.833,-25.996 -27.667,-32.029c-11.829,-6.038 -25.633,-9.058 -41.408,-9.058c-19.05,-0 -32.671,3.541 -40.867,10.616c-8.187,7.079 -12.279,19.992 -12.279,38.746l0,155.304c6.854,0.842 14.233,1.509 22.138,1.996c7.904,0.492 14.858,0.738 20.862,0.738c32.533,-0 55.525,-8.192 68.975,-24.571c13.45,-16.388 20.175,-41.875 20.175,-76.454Z" style="fill:url(#_Linear5);fill-rule:nonzero;"/><path d="M2548.37,2853.24c1.466,-0 2.2,1.466 2.2,4.404c-0,2.942 -0.733,4.408 -2.2,4.408c-17.308,0 -33.313,6.559 -48.017,19.671c-14.704,13.104 -26.816,32.142 -36.333,57.104l-142.946,372.721c-0.492,1.963 -3.063,2.942 -7.713,2.942c-4.654,-0 -7.466,-0.979 -8.45,-2.942l-259.004,-555.483c-8.321,-17.675 -16.958,-30.784 -25.912,-39.329c-8.942,-8.546 -19.65,-12.821 -32.121,-12.821c-1.471,-0 -2.204,-1.467 -2.204,-4.404c-0,-2.938 0.733,-4.409 2.204,-4.409c6.142,0 11.346,0.246 15.608,0.734c4.263,0.491 9.404,0.858 15.434,1.104c6.037,0.246 14.37,0.366 24.995,0.366c23.113,0 42.23,-0.12 57.346,-0.366c15.121,-0.246 27.692,-0.613 37.725,-1.104c10.03,-0.488 18.892,-0.734 26.588,-0.734c1.471,0 2.204,1.471 2.204,4.409c0,2.937 -0.733,4.404 -2.204,4.404c-20.375,-0 -34.125,5.104 -41.254,15.312c-7.125,10.196 -6.167,24.996 2.866,44.4l215.475,464.734l-30.479,51.125l132.688,-343.471c8.27,-22.109 8.645,-39.963 1.125,-53.559c-7.521,-13.604 -23.75,-20.404 -48.684,-20.404c-1.466,0 -2.204,-1.466 -2.204,-4.408c0,-2.938 0.738,-4.404 2.204,-4.404c13.388,-0 26.146,0.366 38.275,1.1c12.125,0.737 28.109,1.104 47.946,1.104c13.846,-0 25.054,-0.367 33.625,-1.104c8.571,-0.734 18.975,-1.1 31.217,-1.1Z" style="fill:url(#_Linear6);fill-rule:nonzero;"/><path d="M2704.81,3252.8c-0.001,14.2 1.287,24.971 3.866,32.316c2.588,7.342 7.854,12.242 15.804,14.688c7.954,2.45 19.996,3.671 36.113,3.671c1.333,-0 2,1.471 2,4.408c-0,2.938 -0.667,4.409 -2,4.409c-12.554,-0.001 -26.417,-0.246 -41.588,-0.738c-15.162,-0.488 -31.9,-0.733 -50.208,-0.733c-17.367,-0 -33.817,0.245 -49.346,0.733c-15.525,0.492 -29.604,0.737 -42.233,0.737c-1.117,0 -1.675,-1.47 -1.675,-4.408c-0,-2.937 0.625,-4.408 1.879,-4.408c15.917,-0 27.954,-1.221 36.117,-3.671c8.162,-2.446 13.658,-7.346 16.479,-14.688c2.833,-7.345 4.246,-18.116 4.246,-32.316l-0,-340.063c-0,-14.2 -1.371,-24.85 -4.117,-31.95c-2.75,-7.1 -8.242,-11.996 -16.483,-14.687c-8.238,-2.696 -20.388,-4.042 -36.446,-4.042c-1.117,0 -1.675,-1.467 -1.675,-4.408c-0,-2.938 0.558,-4.404 1.675,-4.404c12.629,-0 26.708,0.366 42.233,1.1c15.529,0.737 31.979,1.104 49.346,1.104c18.308,-0 35.175,-0.367 50.6,-1.104c15.429,-0.734 29.163,-1.1 41.196,-1.1c1.333,-0 2,1.466 2,4.404c-0,2.941 -0.667,4.408 -2,4.408c-15.883,0 -27.792,1.471 -35.733,4.408c-7.938,2.938 -13.263,8.08 -15.975,15.425c-2.717,7.342 -4.075,18.117 -4.075,32.317l-0,338.592Z" style="fill:url(#_Linear7);fill-rule:nonzero;"/><path d="M2925.59,3132.38l9.808,-18.546l205.667,0l5.141,18.546l-220.616,0Zm390.521,171.096c2.316,-0 3.475,1.471 3.475,4.408c-0,2.938 -1.159,4.409 -3.475,4.409c-14.425,-0.001 -29.388,-0.492 -44.896,-1.471c-15.509,-0.979 -30.404,-1.467 -44.688,-1.467c-16.241,0 -30.316,0.488 -42.221,1.467c-11.904,0.979 -25.179,1.47 -39.82,1.47c-1.963,0.001 -2.942,-1.47 -2.942,-4.408c-0,-2.937 0.979,-4.408 2.942,-4.408c22.091,-0 35.27,-3.933 39.533,-11.808c4.262,-7.88 0.675,-23.346 -10.767,-46.396l-153.746,-311.692l29.934,-49.233l-144.946,327.483c-12.95,29.517 -13.4,52.171 -1.342,67.963c12.059,15.791 32.604,23.683 61.638,23.683c2.45,-0 3.671,1.471 3.671,4.408c-0,2.938 -1.221,4.409 -3.671,4.409c-14.688,-0.001 -28.154,-0.492 -40.396,-1.471c-12.242,-0.979 -27.667,-1.467 -46.271,-1.467c-18.554,0 -33.45,0.488 -44.688,1.467c-11.241,0.979 -24.912,1.47 -41.016,1.47c-1.959,0.001 -2.938,-1.47 -2.938,-4.408c0,-2.937 0.979,-4.408 2.938,-4.408c13.221,-0 24.633,-2.708 34.246,-8.133c9.616,-5.434 19.062,-15.313 28.346,-29.646c9.279,-14.329 19.704,-34.663 31.27,-61.004l157.763,-355.601c0.629,-1.47 2.662,-2.291 6.104,-2.466c3.446,-0.179 5.413,0.646 5.9,2.466l179.992,362.576c11.612,23.42 21.741,41.862 30.379,55.329c8.637,13.462 16.917,22.912 24.846,28.345c7.925,5.426 16.208,8.134 24.846,8.134Z" style="fill:url(#_Linear8);fill-rule:nonzero;"/></g><defs><linearGradient id="_Linear1" x1="0" y1="0" x2="1" y2="0" gradientUnits="userSpaceOnUse" gradientTransform="matrix(1.11425e-13,1819.7,-1819.7,1.11425e-13,2083.33,779.683)"><stop offset="0" style="stop-color:#f5d27a;stop-opacity:1"/><stop offset="0.5" style="stop-color:#d4a84f;stop-opacity:1"/><stop offset="1" style="stop-color:#a8792a;stop-opacity:1"/></linearGradient><linearGradient id="_Linear2" x1="0" y1="0" x2="1" y2="0" gradientUnits="userSpaceOnUse" gradientTransform="matrix(1.11425e-13,1819.7,-1819.7,1.11425e-13,2083.33,779.683)"><stop offset="0" style="stop-color:#f5d27a;stop-opacity:1"/><stop offset="0.5" style="stop-color:#d4a84f;stop-opacity:1"/><stop offset="1" style="stop-color:#a8792a;stop-opacity:1"/></linearGradient><linearGradient id="_Linear3" x1="0" y1="0" x2="1" y2="0" gradientUnits="userSpaceOnUse" gradientTransform="matrix(12.5781,891.792,-891.792,12.5781,2114.33,2637.25)"><stop offset="0" style="stop-color:#f5d27a;stop-opacity:1"/><stop offset="0.5" style="stop-color:#d4a84f;stop-opacity:1"/><stop offset="1" style="stop-color:#a8792a;stop-opacity:1"/></linearGradient><linearGradient id="_Linear4" x1="0" y1="0" x2="1" y2="0" gradientUnits="userSpaceOnUse" gradientTransform="matrix(12.5781,891.792,-891.792,12.5781,2114.33,2637.25)"><stop offset="0" style="stop-color:#f5d27a;stop-opacity:1"/><stop offset="0.5" style="stop-color:#d4a84f;stop-opacity:1"/><stop offset="1" style="stop-color:#a8792a;stop-opacity:1"/></linearGradient><linearGradient id="_Linear5" x1="0" y1="0" x2="1" y2="0" gradientUnits="userSpaceOnUse" gradientTransform="matrix(12.5781,891.792,-891.792,12.5781,2114.33,2637.25)"><stop offset="0" style="stop-color:#f5d27a;stop-opacity:1"/><stop offset="0.5" style="stop-color:#d4a84f;stop-opacity:1"/><stop offset="1" style="stop-color:#a8792a;stop-opacity:1"/></linearGradient><linearGradient id="_Linear6" x1="0" y1="0" x2="1" y2="0" gradientUnits="userSpaceOnUse" gradientTransform="matrix(12.5781,891.792,-891.792,12.5781,2114.33,2637.25)"><stop offset="0" style="stop-color:#f5d27a;stop-opacity:1"/><stop offset="0.5" style="stop-color:#d4a84f;stop-opacity:1"/><stop offset="1" style="stop-color:#a8792a;stop-opacity:1"/></linearGradient><linearGradient id="_Linear7" x1="0" y1="0" x2="1" y2="0" gradientUnits="userSpaceOnUse" gradientTransform="matrix(12.5781,891.792,-891.792,12.5781,2114.33,2637.25)"><stop offset="0" style="stop-color:#f5d27a;stop-opacity:1"/><stop offset="0.5" style="stop-color:#d4a84f;stop-opacity:1"/><stop offset="1" style="stop-color:#a8792a;stop-opacity:1"/></linearGradient><linearGradient id="_Linear8" x1="0" y1="0" x2="1" y2="0" gradientUnits="userSpaceOnUse" gradientTransform="matrix(12.5781,891.792,-891.792,12.5781,2114.33,2637.25)"><stop offset="0" style="stop-color:#f5d27a;stop-opacity:1"/><stop offset="0.5" style="stop-color:#d4a84f;stop-opacity:1"/><stop offset="1" style="stop-color:#a8792a;stop-opacity:1"/></linearGradient></defs></svg>