<?xml version="1.0" encoding="UTF-8" standalone="no"?><!DOCTYPE svg PUBLIC "-//W3C//DTD SVG 1.1//EN" "http://www.w3.org/Graphics/SVG/1.1/DTD/svg11.dtd"><svg width="100%" height="100%" viewBox="160 285 680 440" version="1.1" xmlns="http://www.w3.org/2000/svg" xmlns:xlink="http://www.w3.org/1999/xlink" xml:space="preserve" xmlns:serif="http://www.serif.com/" style="fill-rule:evenodd;clip-rule:evenodd;stroke-linecap:round;stroke-linejoin:round;stroke-miterlimit:1.5;"><g><g transform="matrix(142.32,0,0,142.32,173.794,720.769)"><path d="M0.122,-0.114l0,-0.488l0.026,0.002l-0,0.486c-0,0.034 0.006,0.06 0.019,0.077c0.013,0.017 0.033,0.025 0.06,0.025c0.001,-0 0.002,0.002 0.002,0.006c0,0.004 -0.001,0.006 -0.002,0.006c-0.014,-0 -0.028,-0 -0.042,-0.001c-0.015,-0.001 -0.031,-0.001 -0.049,-0.001c-0.017,-0 -0.035,0 -0.051,0.001c-0.017,0.001 -0.032,0.001 -0.047,0.001c-0.002,-0 -0.002,-0.002 -0.002,-0.006c-0,-0.004 0,-0.006 0.002,-0.006c0.029,-0 0.051,-0.008 0.064,-0.025c0.013,-0.017 0.02,-0.043 0.02,-0.077Zm0.506,0.127c0,0.001 -0.001,0.002 -0.005,0.003c-0.003,0 -0.005,-0 -0.006,-0.001l-0.471,-0.558c-0.023,-0.027 -0.043,-0.046 -0.061,-0.055c-0.017,-0.01 -0.033,-0.015 -0.05,-0.015c-0.001,0 -0.002,-0.002 -0.002,-0.006c-0,-0.004 0.001,-0.006 0.002,-0.006c0.012,0 0.025,0 0.038,0.001c0.013,0.001 0.025,0.001 0.035,0.001c0.016,0 0.031,-0 0.044,-0.001c0.013,-0.001 0.023,-0.001 0.03,-0.001c0.009,0 0.015,0.004 0.019,0.012c0.004,0.007 0.013,0.021 0.029,0.04l0.39,0.47l0.008,0.116Zm0,-0.523l0,0.523l-0.025,-0.031l0,-0.492c0,-0.034 -0.006,-0.06 -0.019,-0.077c-0.012,-0.017 -0.032,-0.026 -0.059,-0.026c-0.001,0 -0.002,-0.002 -0.002,-0.006c0,-0.004 0.001,-0.006 0.002,-0.006c0.014,0 0.028,0.001 0.043,0.001c0.014,0.001 0.03,0.002 0.048,0.002c0.016,0 0.033,-0.001 0.049,-0.002c0.016,-0 0.031,-0.001 0.045,-0.001c0.001,0 0.002,0.002 0.002,0.006c0,0.004 -0.001,0.006 -0.002,0.006c-0.028,0 -0.049,0.009 -0.062,0.026c-0.013,0.017 -0.02,0.043 -0.02,0.077Z" style="fill:#F5F0E6;fill-rule:nonzero;"/></g><g transform="matrix(142.32,0,0,142.32,277.687,720.769)"><path d="M0.049,-0c-0.002,-0 -0.003,-0.002 -0.003,-0.006c0,-0.004 0.001,-0.006 0.003,-0.006c0.024,-0 0.04,-0.005 0.048,-0.014c0.008,-0.009 0.012,-0.027 0.012,-0.055l0,-0.185c0,-0.023 -0.002,-0.04 -0.007,-0.05c-0.004,-0.011 -0.013,-0.016 -0.025,-0.016c-0.005,-0 -0.011,0.001 -0.018,0.003c-0.007,0.002 -0.015,0.006 -0.025,0.01c-0.002,0.001 -0.004,-0.001 -0.006,-0.005c-0.002,-0.004 -0.001,-0.006 0.001,-0.007l0.136,-0.063c0.002,-0.001 0.003,-0.001 0.004,-0.001c0.002,-0 0.004,0.001 0.007,0.003c0.002,0.002 0.003,0.004 0.003,0.007c0,0.006 -0,0.019 -0.001,0.039c-0,0.02 -0.001,0.046 -0.001,0.079l0,0.186c0,0.028 0.004,0.046 0.012,0.055c0.007,0.009 0.024,0.014 0.048,0.014c0.002,0 0.003,0.002 0.003,0.006c0,0.004 -0.001,0.006 -0.003,0.006c-0.012,0 -0.026,-0 -0.042,-0.001c-0.017,-0.001 -0.034,-0.001 -0.052,-0.001c-0.018,0 -0.035,0 -0.051,0.001c-0.016,0.001 -0.03,0.001 -0.043,0.001Zm0.088,-0.507c-0.016,0 -0.028,-0.004 -0.037,-0.012c-0.008,-0.009 -0.013,-0.021 -0.013,-0.036c0,-0.014 0.005,-0.026 0.013,-0.034c0.009,-0.008 0.021,-0.012 0.037,-0.012c0.015,-0 0.026,0.004 0.034,0.012c0.009,0.008 0.013,0.02 0.013,0.034c-0,0.032 -0.016,0.048 -0.047,0.048Z" style="fill:#F5F0E6;fill-rule:nonzero;"/></g><g transform="matrix(142.32,0,0,142.32,316.114,720.769)"><path d="M0.191,0.013c-0.028,0 -0.054,-0.008 -0.077,-0.024c-0.024,-0.015 -0.043,-0.037 -0.058,-0.066c-0.014,-0.029 -0.021,-0.063 -0.021,-0.102c-0,-0.039 0.007,-0.072 0.021,-0.1c0.015,-0.028 0.034,-0.05 0.056,-0.068c0.023,-0.017 0.048,-0.031 0.075,-0.039c0.026,-0.009 0.052,-0.013 0.076,-0.013c0.024,0 0.046,0.004 0.066,0.011c0.021,0.007 0.04,0.017 0.057,0.029l-0.016,0.072c-0.015,-0.027 -0.033,-0.049 -0.053,-0.066c-0.02,-0.016 -0.046,-0.024 -0.077,-0.024c-0.039,0 -0.07,0.014 -0.093,0.041c-0.024,0.027 -0.036,0.07 -0.036,0.126c0,0.038 0.006,0.071 0.017,0.098c0.01,0.027 0.025,0.048 0.044,0.063c0.019,0.015 0.04,0.022 0.063,0.022c0.029,0 0.055,-0.008 0.077,-0.024c0.022,-0.016 0.043,-0.035 0.063,-0.058l0.009,0.008c-0.014,0.016 -0.03,0.033 -0.049,0.051c-0.019,0.017 -0.04,0.032 -0.064,0.045c-0.023,0.012 -0.05,0.018 -0.08,0.018Zm0.23,-0.728l0,0.603c0,0.024 0.003,0.041 0.008,0.051c0.005,0.01 0.014,0.015 0.026,0.015c0.006,0 0.013,-0.001 0.021,-0.002c0.009,-0.002 0.018,-0.006 0.028,-0.011c0.002,-0.001 0.005,-0 0.006,0.004c0.002,0.003 0.002,0.006 -0,0.007l-0.119,0.057c-0.003,0.001 -0.005,0.002 -0.007,0.002c-0.008,-0 -0.015,-0.008 -0.021,-0.024c-0.007,-0.016 -0.01,-0.039 -0.01,-0.068l0,-0.514c0,-0.023 -0.002,-0.04 -0.006,-0.051c-0.005,-0.01 -0.013,-0.016 -0.025,-0.016c-0.006,0 -0.012,0.001 -0.019,0.004c-0.007,0.002 -0.015,0.005 -0.025,0.01c-0.002,0.001 -0.004,-0.001 -0.006,-0.005c-0.002,-0.004 -0.002,-0.006 0,-0.007l0.133,-0.064c0.002,-0.001 0.003,-0.001 0.005,-0.001c0.002,0 0.005,0.001 0.007,0.003c0.003,0.002 0.004,0.004 0.004,0.007Z" style="fill:#F5F0E6;fill-rule:nonzero;"/></g><g transform="matrix(142.32,0,0,142.32,388.981,720.769)"><path d="M0.316,0.006c-0.003,0.001 -0.006,0.002 -0.009,0.002c-0.01,0 -0.019,-0.007 -0.028,-0.022c-0.01,-0.015 -0.014,-0.037 -0.014,-0.065l-0,-0.183c-0,-0.041 -0.005,-0.071 -0.015,-0.089c-0.01,-0.017 -0.025,-0.026 -0.043,-0.026c-0.017,0 -0.03,0.004 -0.04,0.013c-0.01,0.009 -0.017,0.02 -0.021,0.031c-0.005,0.012 -0.008,0.023 -0.01,0.032c-0.001,0.013 -0.005,0.024 -0.012,0.033c-0.006,0.009 -0.017,0.013 -0.031,0.013c-0.014,0 -0.023,-0.003 -0.029,-0.01c-0.006,-0.006 -0.009,-0.014 -0.009,-0.022c-0,-0.014 0.006,-0.027 0.019,-0.04c0.013,-0.013 0.03,-0.024 0.05,-0.035c0.02,-0.01 0.04,-0.019 0.062,-0.025c0.022,-0.006 0.041,-0.009 0.059,-0.009c0.027,-0 0.048,0.009 0.064,0.026c0.016,0.018 0.024,0.044 0.024,0.078l-0,0.184c-0,0.022 0.003,0.038 0.009,0.049c0.006,0.011 0.016,0.016 0.029,0.016c0.012,0 0.026,-0.003 0.044,-0.011c0.003,-0.001 0.005,-0 0.006,0.003c0.002,0.004 0.001,0.007 -0.002,0.008l-0.103,0.049Zm-0.184,0.001c-0.027,-0 -0.047,-0.007 -0.061,-0.02c-0.013,-0.013 -0.02,-0.03 -0.02,-0.05c0,-0.016 0.004,-0.03 0.013,-0.041c0.008,-0.011 0.021,-0.021 0.037,-0.029c0.017,-0.009 0.037,-0.018 0.06,-0.026l0.114,-0.042l0.003,0.013l-0.091,0.037c-0.01,0.004 -0.019,0.008 -0.028,0.014c-0.008,0.005 -0.015,0.012 -0.02,0.019c-0.005,0.008 -0.008,0.017 -0.008,0.028c0,0.016 0.006,0.029 0.016,0.039c0.01,0.011 0.023,0.016 0.039,0.016c0.006,-0 0.013,-0.001 0.019,-0.003c0.007,-0.002 0.015,-0.006 0.024,-0.011l0.059,-0.037l0.002,0.014l-0.073,0.048c-0.016,0.011 -0.03,0.019 -0.043,0.024c-0.013,0.005 -0.027,0.007 -0.042,0.007Z" style="fill:#F5F0E6;fill-rule:nonzero;"/></g><g transform="matrix(142.32,0,0,142.32,448.755,720.769)"></g><g transform="matrix(142.32,0,0,142.32,482.058,720.769)"><path d="M0.562,-0.542c0,-0.019 -0.002,-0.034 -0.006,-0.044c-0.003,-0.01 -0.012,-0.017 -0.024,-0.021c-0.012,-0.004 -0.031,-0.006 -0.056,-0.006c-0.002,0 -0.003,-0.002 -0.003,-0.006c-0,-0.004 0.001,-0.006 0.003,-0.006c0.016,0 0.035,0.001 0.056,0.002c0.02,0.001 0.044,0.001 0.07,0.001c0.023,0 0.045,-0 0.067,-0.001c0.021,-0.001 0.04,-0.002 0.056,-0.002c0.002,0 0.003,0.002 0.003,0.006c0,0.004 -0.001,0.006 -0.003,0.006c-0.023,0 -0.041,0.002 -0.054,0.006c-0.012,0.003 -0.02,0.01 -0.024,0.02c-0.004,0.009 -0.006,0.024 -0.006,0.043l-0,0.463c-0,0.019 0.002,0.034 0.006,0.044c0.004,0.01 0.012,0.017 0.024,0.02c0.013,0.003 0.031,0.005 0.054,0.005c0.002,0 0.003,0.002 0.003,0.006c0,0.004 -0.001,0.006 -0.003,0.006c-0.016,0 -0.035,-0 -0.056,-0.001c-0.022,-0.001 -0.044,-0.001 -0.067,-0.001c-0.026,0 -0.05,0 -0.07,0.001c-0.021,0.001 -0.04,0.001 -0.056,0.001c-0.002,0 -0.003,-0.002 -0.003,-0.006c-0,-0.004 0.001,-0.006 0.003,-0.006c0.025,0 0.044,-0.002 0.056,-0.005c0.012,-0.003 0.021,-0.01 0.024,-0.02c0.004,-0.01 0.006,-0.025 0.006,-0.044l0,-0.461Zm-0.407,0.228l-0,-0.023l0.442,0l0,0.023l-0.442,0Zm-0.037,0.233l0,-0.463c0,-0.019 -0.002,-0.034 -0.006,-0.043c-0.004,-0.01 -0.012,-0.017 -0.024,-0.02c-0.012,-0.004 -0.029,-0.006 -0.053,-0.006c-0.002,0 -0.003,-0.002 -0.003,-0.006c0,-0.004 0.001,-0.006 0.003,-0.006c0.016,0 0.035,0.001 0.056,0.002c0.02,0.001 0.042,0.001 0.065,0.001c0.026,0 0.05,-0 0.071,-0.001c0.021,-0.001 0.04,-0.002 0.057,-0.002c0.001,0 0.002,0.002 0.002,0.006c-0,0.004 -0.001,0.006 -0.002,0.006c-0.025,0 -0.043,0.002 -0.056,0.006c-0.012,0.004 -0.02,0.011 -0.024,0.021c-0.004,0.01 -0.007,0.025 -0.007,0.044l0,0.461c0,0.019 0.002,0.034 0.006,0.044c0.004,0.01 0.013,0.017 0.025,0.02c0.013,0.003 0.031,0.005 0.056,0.005c0.001,0 0.002,0.002 0.002,0.006c-0,0.004 -0.001,0.006 -0.002,0.006c-0.018,0 -0.037,-0 -0.057,-0.001c-0.021,-0.001 -0.045,-0.001 -0.071,-0.001c-0.023,0 -0.045,0 -0.066,0.001c-0.021,0.001 -0.04,0.001 -0.057,0.001c-0.001,0 -0.002,-0.002 -0.002,-0.006c0,-0.004 0.001,-0.006 0.002,-0.006c0.024,0 0.043,-0.002 0.055,-0.005c0.012,-0.003 0.02,-0.01 0.024,-0.02c0.004,-0.01 0.006,-0.025 0.006,-0.044Z" style="fill:#F5F0E6;fill-rule:nonzero;"/></g><g transform="matrix(142.32,0,0,142.32,590.363,720.769)"><path d="M0.233,0.013c-0.04,0 -0.076,-0.01 -0.105,-0.029c-0.03,-0.019 -0.053,-0.045 -0.069,-0.078c-0.016,-0.032 -0.024,-0.067 -0.024,-0.104c-0,-0.035 0.006,-0.065 0.019,-0.09c0.013,-0.025 0.03,-0.046 0.052,-0.063c0.021,-0.016 0.045,-0.028 0.07,-0.036c0.025,-0.008 0.05,-0.012 0.075,-0.012c0.041,0 0.076,0.01 0.106,0.03c0.029,0.02 0.052,0.046 0.067,0.077c0.016,0.031 0.024,0.064 0.024,0.099c-0,0.042 -0.01,0.079 -0.03,0.109c-0.02,0.031 -0.046,0.055 -0.078,0.072c-0.033,0.017 -0.068,0.025 -0.107,0.025Zm0.029,-0.019c0.033,-0 0.058,-0.013 0.077,-0.039c0.018,-0.025 0.027,-0.064 0.027,-0.118c0,-0.044 -0.006,-0.082 -0.02,-0.114c-0.013,-0.033 -0.031,-0.058 -0.053,-0.075c-0.023,-0.018 -0.048,-0.027 -0.076,-0.027c-0.032,-0 -0.058,0.012 -0.075,0.037c-0.018,0.025 -0.027,0.062 -0.027,0.111c-0,0.042 0.006,0.081 0.019,0.115c0.012,0.034 0.03,0.061 0.052,0.08c0.022,0.02 0.048,0.03 0.076,0.03Z" style="fill:#F5F0E6;fill-rule:nonzero;"/></g><g transform="matrix(142.32,0,0,142.32,658.961,720.769)"><path d="M0.559,-0c-0.002,-0 -0.002,-0.002 -0.002,-0.006c-0,-0.004 0,-0.006 0.002,-0.006c0.024,-0 0.041,-0.005 0.049,-0.014c0.008,-0.009 0.012,-0.027 0.012,-0.055l-0,-0.154c-0,-0.076 -0.028,-0.114 -0.083,-0.114c-0.023,0 -0.046,0.007 -0.068,0.021c-0.022,0.014 -0.042,0.033 -0.058,0.056l-0.004,-0.012c0.027,-0.037 0.054,-0.066 0.082,-0.085c0.028,-0.018 0.058,-0.028 0.088,-0.028c0.035,0 0.063,0.01 0.082,0.03c0.019,0.02 0.028,0.051 0.028,0.093l0,0.193c0,0.028 0.004,0.046 0.012,0.055c0.008,0.009 0.024,0.014 0.048,0.014c0.003,0 0.004,0.002 0.004,0.006c-0,0.004 -0.001,0.006 -0.004,0.006c-0.012,0 -0.026,-0 -0.042,-0.001c-0.016,-0.001 -0.034,-0.001 -0.052,-0.001c-0.018,0 -0.034,0 -0.051,0.001c-0.016,0.001 -0.03,0.001 -0.043,0.001Zm-0.259,0c-0.002,0 -0.003,-0.002 -0.003,-0.006c-0,-0.004 0.001,-0.006 0.003,-0.006c0.024,0 0.04,-0.005 0.048,-0.014c0.008,-0.009 0.012,-0.027 0.012,-0.055l-0,-0.154c-0,-0.076 -0.027,-0.114 -0.082,-0.114c-0.023,0 -0.046,0.007 -0.068,0.021c-0.023,0.014 -0.042,0.033 -0.058,0.056l-0.004,-0.012c0.026,-0.037 0.054,-0.066 0.082,-0.085c0.028,-0.018 0.057,-0.028 0.088,-0.028c0.035,0 0.062,0.01 0.081,0.029c0.019,0.02 0.029,0.049 0.029,0.089l-0,0.198c-0,0.028 0.004,0.046 0.011,0.055c0.008,0.009 0.025,0.014 0.049,0.014c0.002,0 0.003,0.002 0.003,0.006c0,0.004 -0.001,0.006 -0.003,0.006c-0.012,0 -0.027,-0 -0.043,-0.001c-0.016,-0.001 -0.033,-0.001 -0.051,-0.001c-0.018,0 -0.035,0 -0.051,0.001c-0.017,0.001 -0.031,0.001 -0.043,0.001Zm-0.257,0c-0.002,0 -0.003,-0.002 -0.003,-0.006c-0,-0.004 0.001,-0.006 0.003,-0.006c0.024,0 0.04,-0.005 0.048,-0.014c0.008,-0.009 0.011,-0.027 0.011,-0.055l0,-0.195c0,-0.021 -0.002,-0.037 -0.007,-0.047c-0.005,-0.01 -0.014,-0.015 -0.026,-0.015c-0.007,-0 -0.014,0.001 -0.023,0.003c-0.009,0.003 -0.019,0.007 -0.03,0.011c-0.002,0.001 -0.004,-0 -0.006,-0.004c-0.001,-0.003 -0.001,-0.006 0.001,-0.007l0.123,-0.059c0.003,-0.001 0.005,-0.001 0.006,-0.001c0.006,-0 0.013,0.007 0.02,0.022c0.007,0.014 0.011,0.036 0.011,0.063l-0,0.229c-0,0.028 0.003,0.046 0.011,0.055c0.008,0.009 0.024,0.014 0.049,0.014c0.002,-0 0.003,0.002 0.003,0.006c-0,0.004 -0.001,0.006 -0.003,0.006c-0.013,-0 -0.027,-0 -0.043,-0.001c-0.016,-0.001 -0.033,-0.001 -0.051,-0.001c-0.018,-0 -0.035,0 -0.051,0.001c-0.017,0.001 -0.031,0.001 -0.043,0.001Z" style="fill:#F5F0E6;fill-rule:nonzero;"/></g><g transform="matrix(142.32,0,0,142.32,768.263,720.769)"><path d="M0.224,0.012c-0.041,0 -0.076,-0.009 -0.104,-0.027c-0.028,-0.018 -0.049,-0.042 -0.064,-0.072c-0.014,-0.029 -0.021,-0.061 -0.021,-0.094c-0,-0.04 0.009,-0.076 0.028,-0.108c0.019,-0.032 0.045,-0.058 0.078,-0.077c0.032,-0.019 0.069,-0.029 0.109,-0.029c0.039,0 0.069,0.01 0.09,0.029c0.02,0.02 0.031,0.048 0.031,0.085c-0,0.009 -0.001,0.016 -0.002,0.021c-0.002,0.005 -0.005,0.007 -0.01,0.007l-0.069,0c0.003,-0.04 -0.002,-0.07 -0.015,-0.091c-0.013,-0.021 -0.033,-0.031 -0.059,-0.031c-0.033,0 -0.058,0.014 -0.077,0.042c-0.018,0.028 -0.027,0.065 -0.027,0.113c-0,0.038 0.006,0.071 0.018,0.1c0.012,0.029 0.029,0.052 0.053,0.068c0.023,0.016 0.051,0.024 0.085,0.024c0.022,0 0.04,-0.003 0.054,-0.009c0.015,-0.006 0.03,-0.013 0.045,-0.022c0.001,-0.001 0.003,-0.001 0.005,0.002c0.003,0.003 0.003,0.006 0.002,0.008c-0.024,0.022 -0.048,0.037 -0.073,0.047c-0.025,0.009 -0.05,0.014 -0.077,0.014Zm-0.135,-0.264l-0.001,-0.015l0.224,-0.004l-0,0.018l-0.223,0.001Z" style="fill:#F5F0E6;fill-rule:nonzero;"/></g><g transform="matrix(142.32,0,0,142.32,826.756,720.769)"></g><g><g><path d="M501.602,423.802c0.009,8.346 0.018,15.741 0.027,21.299l-32.727,-42.705l-0.594,-66.039c-0,0 -1.669,-20.699 -25.707,-20.699c0.333,-5.008 -0,-5.008 -0,-5.008l82.032,-0l0,5.008c0,-0 -21.24,-1.002 -22.924,20.699c-0.141,10.24 -0.142,47.615 -0.116,77.837l106.498,-0l-0,-74.655c-1.002,-26.375 -24.706,-23.704 -24.706,-23.704l-0,-5.185l83.132,-0l-0,5.519c-26.709,-2.337 -25.1,23.704 -25.1,23.704c-0,0 -0.219,142.537 -0,170.652c-0.876,28.116 26.037,26.585 26.037,26.585l-0,4.923l-85.113,-0c-0,-0 -0.041,0.253 -0,-5.689c4.523,0.5 27.041,-4.091 26.984,-27.073l-0,-85.469l-107.723,0Zm-5.871,82.55c-7.234,15.601 -28.331,57.561 -64.148,58.367l0,-5.861c0,0 36.148,-13.02 37.432,-87.848l26.716,35.342Z" style="fill:url(#_Linear1);stroke:#a07820;stroke-width:2.08px;"/></g><path d="M544.744,429.801l0.132,121.62l-9.348,0c-49.296,-71.489 -103.295,-137.885 -158.584,-203.322l1.001,155.246c0,0 1.002,34.388 31.717,33.72c0,5.108 0.724,5.633 0.941,5.676l-74.057,0l0,-5.676c0,0 27.377,5.676 31.049,-33.72c0.668,-41.399 0.334,-165.93 0.334,-165.93c0,0 -1.335,-16.359 -31.049,-22.368c-0.334,-4.674 0,-5.676 0,-5.676l52.416,0l145.898,189.968l-0.128,-69.538l9.678,-0Zm-134.141,112.94l0.061,0c-0,0 -0.023,0.008 -0.061,0Zm124.423,-134.505l-0.165,-89.517c-0,0 2.472,-37.059 -33.152,-36.057c0.073,-4.689 0.038,-5.547 0.015,-5.676l74.202,0l-0,5.008c-0,0 -29.046,-3.338 -31.05,30.048c-0.114,12.047 -0.137,76.196 -0.142,96.194l-9.708,-0Zm-33.302,-131.25l-0.015,0c-0,0 0.007,-0.045 0.015,0Z" style="fill:url(#_Linear2);stroke:#a07820;stroke-width:2.08px;stroke-linecap:butt;stroke-linejoin:miter;"/></g></g><defs><linearGradient id="_Linear1" x1="0" y1="0" x2="1" y2="0" gradientUnits="userSpaceOnUse" gradientTransform="matrix(-0.149303,254.069,-275.286,-0.16177,556.789,310.65)"><stop offset="0" style="stop-color:#e8d49a;stop-opacity:1"/><stop offset="1" style="stop-color:#b8902e;stop-opacity:1"/></linearGradient><linearGradient id="_Linear2" x1="0" y1="0" x2="1" y2="0" gradientUnits="userSpaceOnUse" gradientTransform="matrix(1.84047e-14,300.571,-344.613,2.11015e-14,456.236,276.966)"><stop offset="0" style="stop-color:#e8d49a;stop-opacity:1"/><stop offset="1" style="stop-color:#b8902e;stop-opacity:1"/></linearGradient></defs></svg>