<svg xmlns="http://www.w3.org/2000/svg" version="1.1" style="fill-rule:evenodd;clip-rule:evenodd;stroke-linecap:round;stroke-linejoin:round;stroke-miterlimit:1.5;" viewBox="660.55 452.55 97.90 97.90"><g><g><path d="M713.12,468.86c4.899,0.405 9.809,1.677 14.515,3.894c10.141,4.779 17.969,13.39 21.762,23.94m-79.75,0.548c0.5,-1.453 1.078,-2.876 1.733,-4.265c6.665,-14.147 20.188,-22.882 34.737,-24.11" style="fill:none;stroke:url(#gold-design);stroke-width:3.33px;"/><g><path d="M713.024,468.86l31.765,0" style="fill:none;stroke:url(#gold-design);stroke-width:3.33px;"/><path d="M674.732,468.86l31.288,0" style="fill:none;stroke:url(#gold-design);stroke-width:3.33px;"/><rect x="667.729" y="465.359" width="7.003" height="7.003" style="fill:none;stroke:url(#gold-design);stroke-width:3.33px;"/><rect x="706.02" y="465.359" width="7.003" height="7.003" style="fill:none;stroke:url(#gold-design);stroke-width:3.33px;"/><rect x="744.789" y="465.359" width="7.003" height="7.003" style="fill:none;stroke:url(#gold-design);stroke-width:3.33px;"/></g></g><g><g><path d="M709.522,480.324l0,25.013" style="fill:none;stroke:url(#gold-design);stroke-width:3.33px;"/><g><path d="M700.299,529.693l-10.63,-20.471l19.697,-30.014l20.009,29.389l-10.004,21.096l-19.072,-0Z" style="fill:none;stroke:url(#gold-design);stroke-width:3.33px;"/><rect x="694.984" y="529.693" width="28.764" height="8.453" style="fill:none;stroke:url(#gold-design);stroke-width:3.33px;"/></g></g><circle cx="709.522" cy="510.161" r="4.824" style="fill:none;stroke:url(#gold-design);stroke-width:3.33px;"/></g></g><defs><linearGradient id="gold-design" gradientUnits="userSpaceOnUse" x1="709.5" y1="464.0" x2="709.5" y2="539.0"><stop offset="0" stop-color="#f5d27a"/><stop offset="0.5" stop-color="#d4a84f"/><stop offset="1" stop-color="#a8792a"/></linearGradient></defs></svg>