<svg xmlns="http://www.w3.org/2000/svg" version="1.1" style="fill-rule:evenodd;clip-rule:evenodd;stroke-linecap:round;stroke-linejoin:round;stroke-miterlimit:1.5;" viewBox="242.55 452.05 97.90 97.90"><g><circle cx="291.342" cy="519.214" r="0.375" style="fill:none;stroke:url(#gold-web);stroke-width:3.33px;"/><path d="M279.824,538.135c-0.457,0.27 3.678,-4.776 2.945,-12.149" style="fill:none;stroke:url(#gold-web);stroke-width:3.33px;"/><path d="M302.863,538.135c0.457,0.27 -3.679,-4.776 -2.945,-12.149" style="fill:none;stroke:url(#gold-web);stroke-width:3.33px;"/><path d="M272.268,538.135l38.898,0" style="fill:none;stroke:url(#gold-web);stroke-width:3.33px;"/><path d="M248.207,515.172l86.27,0" style="fill:none;stroke:url(#gold-web);stroke-width:3.33px;"/><path d="M295.687,478.523l-10.501,24.844" style="fill:none;stroke:url(#gold-web);stroke-width:3.33px;"/><path d="M279.89,482.743l-9.405,9.405l8.705,8.704" style="fill:none;stroke:url(#gold-web);stroke-width:3.33px;"/><path d="M301.761,482.743l9.405,9.405l-8.704,8.704" style="fill:none;stroke:url(#gold-web);stroke-width:3.33px;"/><path d="M334.477,468.359l0,53.524c0,2.265 -1.838,4.103 -4.103,4.103l-78.063,0c-2.265,0 -4.104,-1.838 -4.104,-4.103l0,-53.524c0,-2.265 1.839,-4.104 4.104,-4.104l78.063,0c2.265,0 4.103,1.839 4.103,4.104Z" style="fill:none;stroke:url(#gold-web);stroke-width:3.33px;"/></g><defs><linearGradient id="gold-web" gradientUnits="userSpaceOnUse" x1="291.5" y1="463.0" x2="291.5" y2="539.0"><stop offset="0" stop-color="#f5d27a"/><stop offset="0.5" stop-color="#d4a84f"/><stop offset="1" stop-color="#a8792a"/></linearGradient></defs></svg>